<svg
        xmlns="http://www.w3.org/2000/svg"
        width="240"
        height="240"
        viewBox="0 0 24 24"
        fill="white"
        stroke="#333"
        stroke-width="0.5"
        stroke-linecap="round"
        stroke-linejoin="round"
>
    <path d="M12 .5C5.65.5.5 5.65.5 12c0 5.1 3.29 9.42 7.86 10.95.58.1.79-.25.79-.55 0-.27-.01-1.17-.02-2.12-3.2.69-3.88-1.38-3.88-1.38-.53-1.34-1.3-1.7-1.3-1.7-1.06-.72.08-.71.08-.71 1.18.08 1.8 1.21 1.8 1.21 1.04 1.79 2.73 1.27 3.4.97.1-.76.41-1.27.74-1.56-2.55-.29-5.23-1.28-5.23-5.7 0-1.26.45-2.3 1.2-3.11-.12-.29-.52-1.46.11-3.04 0 0 .97-.31 3.18 1.18.92-.26 1.9-.39 2.88-.4.98 0 1.96.14 2.88.4 2.2-1.49 3.17-1.18 3.17-1.18.63 1.58.23 2.75.11 3.04.75.81 1.2 1.85 1.2 3.11 0 4.43-2.69 5.41-5.25 5.69.42.36.8 1.09.8 2.21 0 1.6-.02 2.89-.02 3.28 0 .3.21.65.8.54C20.21 21.42 23.5 17.1 23.5 12c0-6.35-5.15-11.5-11.5-11.5z"/>
</svg>
